<svg width="32" height="32" viewBox="0 0 32 32" fill="none" xmlns="http://www.w3.org/2000/svg">
<path d="M16.0003 31.6433C24.6408 31.6433 31.6453 24.6389 31.6453 15.9984C31.6453 7.35796 24.6408 0.353516 16.0003 0.353516C7.35988 0.353516 0.355469 7.35796 0.355469 15.9984C0.355469 24.6389 7.35988 31.6433 16.0003 31.6433Z" fill="#FDEFE7"/>
<path d="M12.1972 18.8535C12.1972 18.8535 16.2406 23.3631 19.4861 18.8535L26.2031 21.8921C27.0179 22.3245 27.3848 23.4581 27.7805 24.2915L28.247 25.58C28.247 25.58 24.0247 31.8093 15.9998 31.6602C7.97497 31.5111 3.91992 25.7356 3.91992 25.7356L4.98586 23.0918C5.56597 22.2506 6.75156 21.5038 7.69631 21.1145L12.1972 18.8535Z" fill="#F29D67"/>
<path d="M18.3719 16.1562C18.2695 17.3003 18.3331 17.928 19.4148 18.9371C15.8139 23.251 12.6406 18.9371 12.6406 18.9371C13.4551 18.244 13.743 17.6285 13.9546 16.1562C13.9546 16.1562 15.7088 17.0653 18.3719 16.1562Z" fill="#F4C5A8"/>
<path d="M15.9843 16.4283C19.0886 16.4283 21.6052 13.5032 21.6052 9.89485C21.6052 6.28649 19.0886 3.36133 15.9843 3.36133C12.8799 3.36133 10.3633 6.28649 10.3633 9.89485C10.3633 13.5032 12.8799 16.4283 15.9843 16.4283Z" fill="#F4C5A8"/>
<path fill-rule="evenodd" clip-rule="evenodd" d="M15.9867 3.72463C13.134 3.72463 10.7315 6.43248 10.7315 9.89242C10.7315 13.3524 13.134 16.0602 15.9867 16.0602C18.8394 16.0602 21.2419 13.3524 21.2419 9.89242C21.2419 6.43247 18.8394 3.72463 15.9867 3.72463ZM10 9.89242C10 6.13564 12.6307 2.99316 15.9867 2.99316C19.3428 2.99316 21.9734 6.13564 21.9734 9.89242C21.9734 13.6492 19.3428 16.7916 15.9867 16.7916C12.6307 16.7916 10 13.6492 10 9.89242Z" fill="#635746"/>
<path d="M15.9678 2.99377C14.7208 3.00582 13.3352 3.47758 12.3754 4.3468C11.6268 5.03443 11.0974 5.80755 10.6567 6.7611C10.2161 7.71464 10.0539 8.83828 9.99219 9.90414C11.4622 9.00503 12.8361 8.39619 13.9347 7.00146C15.9703 9.65734 18.8003 10.7974 21.951 11.2014C21.951 11.0096 21.9734 10.7934 21.9734 10.6139C22.2502 6.3386 19.5366 2.94123 15.9678 2.99377Z" fill="#635746"/>
<path fill-rule="evenodd" clip-rule="evenodd" d="M12.6225 4.20946C12.8021 4.11714 13.0226 4.18794 13.1149 4.3676C13.9267 5.94729 15.1287 7.2933 16.6069 8.27793C18.085 9.26255 19.7902 9.85309 21.5607 9.99348C21.7621 10.0094 21.9124 10.1856 21.8964 10.387C21.8804 10.5883 21.7043 10.7386 21.5029 10.7227C19.6081 10.5724 17.7832 9.94043 16.2013 8.8867C14.6195 7.83297 13.3331 6.3925 12.4643 4.70191C12.372 4.52225 12.4428 4.30177 12.6225 4.20946Z" fill="#635746"/>
<path fill-rule="evenodd" clip-rule="evenodd" d="M14.1838 6.04934C14.3413 6.17583 14.3665 6.40603 14.24 6.56352C13.2634 7.77944 12.0449 8.77923 10.6617 9.49954C10.4825 9.59284 10.2617 9.52323 10.1684 9.34408C10.0751 9.16492 10.1447 8.94406 10.3238 8.85077C11.6172 8.17725 12.7565 7.24241 13.6697 6.10548C13.7961 5.94799 14.0264 5.92286 14.1838 6.04934Z" fill="#635746"/>
<path fill-rule="evenodd" clip-rule="evenodd" d="M13.5331 15.6367C13.7351 15.6368 13.8988 15.8006 13.8987 16.0026L13.533 16.0025L13.1672 16.0023C13.1673 15.8003 13.3311 15.6366 13.5331 15.6367ZM3.84629 25.5116L3.50985 25.3682L3.85244 24.5646C4.04238 24.1192 4.26971 23.5864 4.41905 23.2373C4.75232 22.458 5.35642 21.8258 6.11966 21.4574C6.80332 21.1274 12.672 18.2939 12.8341 18.2156C12.9342 18.1673 13.0185 18.0916 13.0775 17.9973C13.1365 17.9031 13.1675 17.7942 13.1672 17.6831C13.167 17.5924 13.167 17.1716 13.167 16.7747L13.1672 16.0023L13.533 16.0025L13.8987 16.0026L13.8985 16.7748C13.8984 17.1726 13.8984 17.5917 13.8987 17.681C13.8994 17.9301 13.8297 18.1742 13.6976 18.3852C13.5656 18.5963 13.3766 18.7659 13.1523 18.8742C12.9901 18.9526 7.12131 21.7861 6.43762 22.1161C5.83351 22.4077 5.35537 22.9081 5.09159 23.5249C4.94242 23.8737 4.71523 24.4062 4.52528 24.8515L4.18286 25.6547L3.84629 25.5116ZM3.84629 25.5116L3.50985 25.3682C3.43065 25.554 3.51708 25.7688 3.7029 25.848C3.88872 25.9272 4.10366 25.8405 4.18286 25.6547L3.84629 25.5116Z" fill="#635746"/>
<path fill-rule="evenodd" clip-rule="evenodd" d="M18.4712 15.5068C18.6732 15.5068 18.8369 15.6706 18.8369 15.8726V17.2927C18.837 17.4798 18.89 17.6633 18.9896 17.8217C19.0893 17.9801 19.2316 18.1072 19.4003 18.1883L19.4009 18.1886L25.8845 21.3204C25.8846 21.3204 25.8845 21.3203 25.8845 21.3204C26.6488 21.6891 27.2533 22.323 27.5853 23.104C27.5854 23.1042 27.5854 23.1044 27.5855 23.1046L28.5401 25.3261C28.6198 25.5116 28.534 25.7267 28.3485 25.8065C28.1629 25.8862 27.9478 25.8004 27.868 25.6148L26.9129 23.392L26.9123 23.3906C26.6497 22.7726 26.1715 22.271 25.5667 21.9792L19.0833 18.8475C19.0831 18.8474 19.083 18.8474 19.0829 18.8473C18.7903 18.7065 18.5434 18.486 18.3705 18.2111C18.1975 17.9362 18.1056 17.618 18.1055 17.293L18.1055 15.8726C18.1055 15.6706 18.2692 15.5068 18.4712 15.5068Z" fill="#635746"/>
<path fill-rule="evenodd" clip-rule="evenodd" d="M19.9839 18.4652C20.1377 18.5961 20.1563 18.8269 20.0253 18.9807L19.5187 19.5759C19.5185 19.5761 19.5184 19.5763 19.5182 19.5765C19.1121 20.058 18.6094 20.4489 18.0426 20.7236C17.4756 20.9985 16.8571 21.1511 16.2273 21.1715C15.5974 21.1919 14.9703 21.0796 14.3867 20.842C13.8043 20.6049 13.2781 20.2483 12.8421 19.7951L12.1345 19.0875C11.9916 18.9447 11.9916 18.7131 12.1345 18.5703C12.2773 18.4274 12.5089 18.4274 12.6517 18.5703L13.3645 19.283L13.367 19.2857C13.7325 19.6662 14.1738 19.9656 14.6625 20.1646C15.1512 20.3635 15.6762 20.4575 16.2036 20.4404C16.7309 20.4233 17.2488 20.2956 17.7235 20.0654C18.1983 19.8353 18.6194 19.5079 18.9595 19.1045L18.9606 19.1031L19.4683 18.5066C19.5992 18.3528 19.8301 18.3342 19.9839 18.4652Z" fill="#635746"/>
<path fill-rule="evenodd" clip-rule="evenodd" d="M16 0.710164C7.5556 0.710164 0.710165 7.55563 0.710165 16C0.710165 24.4443 7.5556 31.2898 16 31.2898C24.4443 31.2898 31.2898 24.4443 31.2898 16C31.2898 7.55564 24.4443 0.710164 16 0.710164ZM0 16C0 7.16342 7.16339 0 16 0C24.8365 0 32 7.16342 32 16C32 24.8365 24.8365 32 16 32C7.16339 32 0 24.8365 0 16Z" fill="#D59E7B"/>
</svg>
