<svg width="64" height="64" viewBox="0 0 64 64" fill="none" xmlns="http://www.w3.org/2000/svg">
<path d="M20.2049 25.3697C19.4369 24.4225 17.9969 24.6081 17.9265 26.2017C17.9379 27.3051 18.1303 28.3991 18.4961 29.4401C18.7521 30.2721 19.9681 33.3249 20.9985 32.5185" fill="white"/>
<path d="M20.64 32.9729C20.5464 32.9737 20.4533 32.9585 20.3648 32.9281C19.1424 32.5441 18.1952 29.5617 18.1888 29.5297C17.8129 28.4555 17.6162 27.3269 17.6064 26.1889C17.5561 25.8336 17.6303 25.4718 17.8164 25.165C18.0024 24.8581 18.2889 24.625 18.6271 24.5052C18.9654 24.3854 19.3347 24.3863 19.6724 24.5077C20.0101 24.6291 20.2954 24.8636 20.48 25.1713C20.5323 25.2376 20.5563 25.3219 20.5467 25.4058C20.5371 25.4898 20.4947 25.5665 20.4288 25.6193C20.3633 25.6724 20.2795 25.6974 20.1956 25.689C20.1117 25.6806 20.0345 25.6395 19.9808 25.5745C19.8601 25.4026 19.6909 25.2706 19.4948 25.1954C19.2987 25.1201 19.0847 25.1051 18.88 25.1521C18.6728 25.243 18.4998 25.3974 18.386 25.5929C18.2721 25.7884 18.2232 26.015 18.2464 26.2401C18.2611 27.3066 18.4491 28.3636 18.8032 29.3697C19.0976 30.3297 19.936 32.1473 20.5568 32.3457C20.5983 32.3592 20.6425 32.3615 20.6852 32.3525C20.7279 32.3435 20.7674 32.3235 20.8 32.2945C20.8325 32.2678 20.87 32.2478 20.9104 32.2359C20.9507 32.224 20.993 32.2203 21.0348 32.2251C21.0766 32.2299 21.117 32.243 21.1537 32.2637C21.1903 32.2844 21.2224 32.3123 21.248 32.3457C21.3003 32.412 21.3243 32.4963 21.3147 32.5802C21.3051 32.6642 21.2627 32.7409 21.1968 32.7937C21.036 32.9132 20.8403 32.9762 20.64 32.9729Z" fill="#3B3B3B"/>
<path d="M43.8271 32.2111C44.7999 33.6511 46.2079 30.3295 46.4575 29.4399C46.7914 28.3924 46.9661 27.3008 46.9759 26.2015C46.9055 24.6079 45.2031 24.5375 44.5119 25.4911" fill="white"/>
<path d="M44.3648 32.8831C44.1994 32.8768 44.0384 32.8282 43.8972 32.742C43.756 32.6557 43.6393 32.5346 43.5584 32.3903C43.5117 32.3187 43.495 32.2317 43.5117 32.148C43.5285 32.0642 43.5774 31.9904 43.648 31.9423C43.7185 31.8959 43.8045 31.8794 43.8872 31.8962C43.9699 31.9129 44.0426 31.9617 44.0896 32.0319C44.2496 32.2687 44.3584 32.2495 44.3968 32.2431C44.9792 32.1471 45.8816 30.3231 46.1504 29.3503C46.4673 28.3431 46.6376 27.2956 46.656 26.2399C46.6692 26.0286 46.6142 25.8187 46.4989 25.6412C46.3837 25.4637 46.2143 25.3281 46.016 25.2543C45.7823 25.1907 45.5349 25.1995 45.3064 25.2795C45.0779 25.3595 44.879 25.5069 44.736 25.7023C44.6859 25.771 44.6106 25.817 44.5265 25.8302C44.4425 25.8434 44.3567 25.8227 44.288 25.7727C44.2192 25.7226 44.1732 25.6473 44.16 25.5632C44.1468 25.4792 44.1675 25.3934 44.2176 25.3247C44.4354 25.0248 44.7399 24.799 45.0901 24.6777C45.4403 24.5563 45.8193 24.5454 46.176 24.6463C46.5017 24.7561 46.7834 24.9679 46.9793 25.2503C47.1753 25.5327 47.2751 25.8707 47.264 26.2143C47.2551 27.3461 47.0761 28.4701 46.7328 29.5487C46.7328 29.5487 45.7344 32.6975 44.4672 32.9023L44.3648 32.8831Z" fill="#3B3B3B"/>
<path d="M25.6 42.125C25.6 42.125 25.7728 47.5074 24.512 48.877C24.0064 49.4338 21.408 49.9138 18.24 50.6818L17.9136 50.7586C17.9136 50.7586 31.9936 61.7794 45.3568 50.4514L44.9792 50.3618C42.4192 49.773 40.4992 49.3506 40.0384 48.877C38.7584 47.5074 38.944 42.3682 38.944 42.3682" fill="white"/>
<path d="M32.1279 55.8592C24.0511 55.8592 17.8175 51.0848 17.7215 51.0144L17.2031 50.6048L18.1695 50.368L20.1599 49.92C22.0799 49.4656 23.9551 49.0432 24.2879 48.6784C25.2415 47.6352 25.3311 43.616 25.2863 42.1504C25.2855 42.1084 25.2929 42.0666 25.3082 42.0274C25.3235 41.9883 25.3464 41.9525 25.3755 41.9222C25.4046 41.8919 25.4394 41.8676 25.4779 41.8508C25.5164 41.8339 25.5579 41.8248 25.5999 41.824C25.6416 41.8223 25.6833 41.8289 25.7224 41.8435C25.7615 41.8581 25.7973 41.8804 25.8277 41.909C25.8581 41.9376 25.8825 41.972 25.8994 42.0101C25.9164 42.0483 25.9255 42.0895 25.9263 42.1312C25.9263 42.6944 26.0671 47.6864 24.7551 49.1136C24.3135 49.6 22.9247 49.9392 20.2751 50.5408L18.6495 50.9248C21.3439 52.7424 33.2607 59.7952 44.6335 50.6368L44.2687 50.56C41.6383 49.92 40.2495 49.6128 39.7887 49.1264C38.4575 47.6736 38.6047 42.6048 38.6111 42.3872C38.616 42.304 38.6526 42.2258 38.7133 42.1687C38.7739 42.1116 38.8542 42.0799 38.9375 42.08C38.9795 42.0808 39.021 42.0899 39.0595 42.1068C39.098 42.1236 39.1328 42.1479 39.1619 42.1782C39.1911 42.2085 39.2139 42.2443 39.2292 42.2834C39.2445 42.3226 39.252 42.3644 39.2511 42.4064C39.2063 43.8016 39.3023 47.648 40.2623 48.6912C40.5887 49.056 42.4383 49.4784 44.3903 49.9328L46.0351 50.3168L45.5487 50.7264C40.9983 54.5728 36.3135 55.8592 32.1279 55.8592Z" fill="#3B3B3B"/>
<path d="M44.0126 25.984C44.0126 25.984 45.2286 24.608 46.0286 25.7088C46.8286 26.8096 45.3118 31.4688 44.307 32.0128C43.3022 32.5568 43.3982 31.4176 43.3982 31.4176L44.0126 25.984Z" fill="#E1A277"/>
<path d="M20.7297 25.9904C20.7297 25.9904 19.5201 24.6144 18.7201 25.7152C17.9201 26.816 19.4369 31.4752 20.4353 32.0128C21.4337 32.5504 21.3441 31.424 21.3441 31.424L20.7297 25.9904Z" fill="#E1A277"/>
<path d="M42.3042 12.9152C40.0898 9.79204 36.1282 8.55044 32.3586 8.51204C28.589 8.47364 24.621 9.79204 22.4002 12.9152C19.8402 16.5248 19.9682 22.1568 20.3202 26.5664C20.6274 30.4768 21.2418 35.4432 22.8802 39.008C23.8978 41.2416 25.3442 42.0544 27.4754 43.2768C28.9651 44.1937 30.631 44.7868 32.365 45.0176C34.0967 44.7858 35.7603 44.1927 37.2482 43.2768C39.3794 42.0544 40.8258 41.2416 41.8434 39.008C43.469 35.4432 44.0834 30.4768 44.4034 26.5664C44.7362 22.1568 44.8642 16.5248 42.3042 12.9152Z" fill="white"/>
<path d="M32.3904 45.3311C30.5882 45.1109 28.8548 44.504 27.3088 43.5519C25.1584 42.3231 23.6416 41.4527 22.5856 39.1423C20.864 35.3727 20.288 30.1823 20.0256 26.5919C19.6608 22.0479 19.584 16.3519 22.1632 12.7295C24.1728 9.89435 27.9232 8.24955 32.3712 8.18555C36.8512 8.23675 40.576 9.89435 42.6112 12.7295C45.1712 16.3711 45.1136 22.0479 44.7488 26.5919C44.4672 30.1759 43.8912 35.3727 42.1888 39.1423C41.1392 41.4527 39.6288 42.3423 37.5104 43.5263C35.953 44.4884 34.2068 45.1039 32.3904 45.3311ZM32.352 8.85115C28.0896 8.90235 24.5568 10.4575 22.6688 13.1263C20.2048 16.5951 20.288 22.1311 20.64 26.5663C20.9216 30.0991 21.4912 35.2255 23.2 38.9055C24.1664 41.0239 25.536 41.8111 27.616 43.0015C29.0795 43.9064 30.7172 44.493 32.4224 44.7231C34.0857 44.4848 35.6824 43.9076 37.1136 43.0271C39.2384 41.8111 40.608 41.0239 41.5936 38.9055C43.2704 35.2255 43.84 30.0991 44.1536 26.5663C44.5056 22.1311 44.5888 16.5951 42.1312 13.1263C40.1536 10.4319 36.6208 8.87675 32.352 8.82555V8.85115Z" fill="#3B3B3B"/>
<path d="M43.0913 24.1855C42.4513 23.1487 42.1696 21.9583 41.4976 20.9855C40.9905 20.2747 40.5795 19.5 40.2753 18.6815C39.9873 17.9071 36.5377 18.3679 35.1553 18.2015C34.4129 18.1055 32.9473 15.5839 32.8001 16.9663C32.5953 18.8351 32.8001 21.4911 31.9553 21.3695C31.1105 21.2479 28.3265 19.2511 27.6801 18.6751C26.9712 17.8552 26.3292 16.9799 25.7601 16.0575C25.6693 15.9159 25.5264 15.8156 25.3624 15.7785C25.1983 15.7413 25.0261 15.7703 24.8833 15.8591C23.9105 16.4991 24.4481 18.3871 23.9233 19.6351C23.5073 20.6463 22.7265 21.4079 22.0929 22.3231C21.2707 23.4575 20.8659 24.8413 20.9473 26.2399V26.3103C21.2353 30.0031 21.7985 34.9951 23.3025 38.3807C23.7923 39.4783 24.5627 40.4275 25.5361 41.1327C27.9809 42.8799 30.1505 43.9231 32.1153 44.1599C32.213 44.1727 32.3119 44.1727 32.4097 44.1599C34.3745 43.9231 36.5441 42.8799 38.9825 41.1199C39.9549 40.4094 40.7267 39.4591 41.2225 38.3615C42.7201 34.9823 43.2961 29.9839 43.584 26.2975C43.6435 25.5594 43.4713 24.8211 43.0913 24.1855ZM28.9537 26.9183C28.7976 27.068 28.6127 27.1843 28.4103 27.2602C28.2078 27.3361 27.992 27.3701 27.7761 27.3599C27.3598 27.3934 26.9411 27.3389 26.5473 27.1999C26.5313 27.2365 26.5076 27.2692 26.4778 27.2958C26.4479 27.3223 26.4127 27.342 26.3745 27.3535C26.1272 27.4074 25.8696 27.3896 25.6321 27.3023C25.4301 27.2077 25.2138 27.1472 24.9921 27.1231C24.9405 27.1222 24.8902 27.1075 24.8463 27.0805C24.8024 27.0534 24.7665 27.0151 24.7425 26.9695L24.5377 27.0143C24.4528 27.0143 24.3714 26.9806 24.3114 26.9206C24.2514 26.8606 24.2177 26.7792 24.2177 26.6943C24.2177 26.6095 24.2514 26.5281 24.3114 26.4681C24.3714 26.408 24.4528 26.3743 24.5377 26.3743C24.8065 26.3743 25.0369 26.0607 25.2609 25.9199C25.5522 25.767 25.8651 25.6591 26.1889 25.5999C26.2371 25.5869 26.2879 25.5869 26.3361 25.5999H26.3809C26.5134 25.5681 26.6515 25.5681 26.7841 25.5999C26.8387 25.5651 26.8995 25.5412 26.9633 25.5295C27.3419 25.4929 27.7238 25.5478 28.0769 25.6895C28.4673 25.8495 28.6401 26.2207 28.9537 26.4767C29.0104 26.5362 29.042 26.6153 29.042 26.6975C29.042 26.7798 29.0104 26.8588 28.9537 26.9183ZM40.4737 26.9695C40.3275 27.0178 40.1777 27.0542 40.0257 27.0783C40.0092 27.1114 39.9859 27.1405 39.9572 27.1637C39.9284 27.1869 39.895 27.2037 39.8593 27.2127C39.6196 27.2775 39.3708 27.3013 39.1233 27.2831H39.0657C39.0267 27.3226 38.9782 27.3513 38.9249 27.3663C38.1613 27.5303 37.3651 27.4381 36.6593 27.1039C36.6107 27.0972 36.5658 27.0747 36.5313 27.0399C36.2817 27.2255 35.8913 26.9439 36.0705 26.6431C36.3126 26.3261 36.623 26.0678 36.9786 25.8872C37.3343 25.7066 37.7261 25.6084 38.1249 25.5999C38.5605 25.5442 39.003 25.6083 39.4049 25.7855C39.8017 25.9583 40.1601 26.2015 40.5569 26.3743C40.7937 26.5087 40.6849 26.8799 40.4609 26.9695H40.4737Z" fill="#E1A277"/>
<g opacity="0.9">
<path opacity="0.9" d="M26.1375 46.2784C26.1375 46.2016 26.1375 46.1312 26.1375 46.0544C26.1375 46.7648 26.0607 47.4944 25.9839 48.1856H26.0671L26.1055 47.904C26.1471 47.3632 26.1578 46.8205 26.1375 46.2784Z" fill="#ECECEC"/>
</g>
<path d="M32.4734 34.4833C32.2754 34.4937 32.0775 34.4613 31.893 34.3884C31.7086 34.3156 31.5421 34.2039 31.4046 34.0609C31.1102 33.7409 30.9566 33.7345 30.9182 33.7409C30.8968 33.7463 30.877 33.7566 30.8603 33.7711C30.8436 33.7855 30.8306 33.8037 30.8222 33.8241C30.8041 33.8621 30.7722 33.8919 30.733 33.9073C30.6938 33.9228 30.6502 33.9228 30.611 33.9073C30.5735 33.8904 30.5439 33.8597 30.5284 33.8216C30.5129 33.7834 30.5127 33.7408 30.5278 33.7025C30.555 33.6331 30.5991 33.5716 30.6561 33.5235C30.7131 33.4755 30.7812 33.4424 30.8542 33.4273C31.091 33.3825 31.347 33.5233 31.6414 33.8433C31.7547 33.9584 31.8921 34.0468 32.0438 34.1021C32.1954 34.1575 32.3575 34.1784 32.5182 34.1633C32.9006 34.1663 33.2727 34.04 33.5742 33.8049C33.6622 33.6815 33.7798 33.5822 33.9163 33.5162C34.0527 33.4502 34.2036 33.4196 34.355 33.4273C34.4307 33.4405 34.5013 33.4744 34.5589 33.5252C34.6165 33.576 34.6589 33.6418 34.6814 33.7153C34.695 33.756 34.6918 33.8005 34.6726 33.8389C34.6534 33.8773 34.6198 33.9065 34.579 33.9201C34.5383 33.9337 34.4938 33.9305 34.4554 33.9113C34.417 33.8921 34.3878 33.8584 34.3742 33.8177C34.3699 33.799 34.3604 33.7819 34.3468 33.7683C34.3333 33.7547 34.3161 33.7452 34.2974 33.7409C34.2029 33.7453 34.1108 33.772 34.0285 33.8187C33.9462 33.8654 33.8761 33.9308 33.8238 34.0097C33.4672 34.315 33.0133 34.4829 32.5438 34.4833H32.4734Z" fill="#3B3B3B"/>
<path d="M30.6751 34.4001C29.8495 34.3489 29.8239 33.5425 29.8047 33.0049V32.9025C29.803 32.8813 29.8056 32.8599 29.8125 32.8398C29.8195 32.8196 29.8305 32.8011 29.8449 32.7855C29.8594 32.7699 29.8769 32.7574 29.8964 32.7489C29.916 32.7404 29.937 32.736 29.9583 32.7361C29.9999 32.7374 30.0396 32.7536 30.0702 32.7818C30.1008 32.81 30.1201 32.8483 30.1247 32.8897V32.9985C30.1247 33.6385 30.1951 34.0545 30.6943 34.0801C30.7373 34.0834 30.7774 34.1032 30.806 34.1355C30.8347 34.1677 30.8497 34.2098 30.8479 34.2529C30.8463 34.2739 30.8406 34.2944 30.831 34.3132C30.8214 34.332 30.8082 34.3488 30.7922 34.3624C30.7761 34.3761 30.7575 34.3865 30.7374 34.3929C30.7173 34.3994 30.6962 34.4018 30.6751 34.4001Z" fill="#3B3B3B"/>
<path d="M34.4641 34.4C34.4238 34.4001 34.3849 34.385 34.3553 34.3577C34.3256 34.3304 34.3073 34.2929 34.3041 34.2528C34.3023 34.2097 34.3173 34.1676 34.346 34.1353C34.3746 34.1031 34.4147 34.0833 34.4577 34.08C34.9569 34.08 35.0081 33.6128 35.0337 32.9984V32.8896C35.0345 32.8686 35.0395 32.8479 35.0483 32.8288C35.0571 32.8097 35.0696 32.7925 35.0851 32.7783C35.1005 32.764 35.1186 32.7529 35.1384 32.7457C35.1581 32.7384 35.1791 32.7351 35.2001 32.736C35.2214 32.7359 35.2425 32.7403 35.262 32.7488C35.2815 32.7573 35.2991 32.7697 35.3135 32.7854C35.3279 32.801 35.339 32.8195 35.3459 32.8397C35.3528 32.8598 35.3555 32.8812 35.3537 32.9024V33.0048C35.3537 33.5424 35.3025 34.3488 34.4769 34.4H34.4641Z" fill="#3B3B3B"/>
<path d="M32.4033 38.2785C32.1457 38.2773 31.8894 38.2407 31.6417 38.1697C31.5268 38.1371 31.4136 38.0986 31.3025 38.0545C31.0531 37.9235 30.7674 37.8785 30.4897 37.9265C29.566 38.0422 28.6295 38.0033 27.7185 37.8113C27.6965 37.8092 27.6751 37.8025 27.6558 37.7916C27.6364 37.7808 27.6196 37.7661 27.6062 37.7484C27.5929 37.7307 27.5834 37.7104 27.5783 37.6889C27.5732 37.6673 27.5726 37.6449 27.5766 37.6231C27.5806 37.6014 27.5891 37.5806 27.6015 37.5623C27.614 37.5439 27.6301 37.5284 27.6488 37.5166C27.6676 37.5048 27.6886 37.497 27.7105 37.4938C27.7324 37.4905 27.7548 37.4919 27.7761 37.4977C28.6415 37.6739 29.5291 37.7127 30.4065 37.6129C30.75 37.5505 31.1044 37.5998 31.4177 37.7537L31.7313 37.8625C32.15 37.9797 32.5927 37.9797 33.0113 37.8625C33.135 37.8309 33.2567 37.7924 33.3761 37.7473C33.7074 37.585 34.0821 37.5334 34.4449 37.6001C35.3778 37.6978 36.32 37.659 37.2417 37.4849C37.2631 37.4791 37.2855 37.4777 37.3074 37.481C37.3293 37.4842 37.3503 37.492 37.369 37.5038C37.3878 37.5156 37.4039 37.5311 37.4163 37.5495C37.4288 37.5678 37.4372 37.5886 37.4412 37.6103C37.4452 37.6321 37.4447 37.6545 37.4396 37.6761C37.4345 37.6976 37.425 37.7179 37.4116 37.7356C37.3983 37.7533 37.3814 37.768 37.3621 37.7788C37.3427 37.7897 37.3214 37.7964 37.2993 37.7985C36.3316 37.985 35.3411 38.0238 34.3617 37.9137C34.0626 37.8673 33.7564 37.9142 33.4849 38.0481L33.0945 38.1761C32.8692 38.2384 32.6371 38.2728 32.4033 38.2785Z" fill="#3B3B3B"/>
<path d="M26.6241 27.6673C25.6986 27.682 24.7831 27.4734 23.9553 27.0593C23.9227 27.0422 23.8947 27.0177 23.8735 26.9876C23.8524 26.9576 23.8387 26.9229 23.8337 26.8865C23.8299 26.8481 23.8354 26.8094 23.8499 26.7738C23.8644 26.7381 23.8874 26.7064 23.9169 26.6817C24.5031 26.0746 25.2596 25.6595 26.0865 25.4913C26.5388 25.3916 27.0086 25.4042 27.4549 25.528C27.9011 25.6519 28.3103 25.8832 28.6465 26.2017C28.8805 26.5078 29.1952 26.7428 29.5553 26.8801C29.5949 26.892 29.6287 26.9183 29.65 26.9538C29.6713 26.9893 29.6786 27.0315 29.6705 27.0721C29.666 27.0927 29.6574 27.1122 29.6452 27.1295C29.6331 27.1468 29.6177 27.1616 29.5998 27.1729C29.582 27.1842 29.5621 27.1918 29.5412 27.1954C29.5204 27.199 29.4991 27.1984 29.4785 27.1937C29.0615 27.0384 28.6959 26.7703 28.4225 26.4193C28.1209 26.1351 27.7548 25.9284 27.3557 25.817C26.9567 25.7055 26.5365 25.6925 26.1313 25.7793C25.4012 25.9228 24.7318 26.2843 24.2113 26.8161C25.6913 27.4659 27.3682 27.505 28.8769 26.9249C28.8971 26.9181 28.9184 26.9154 28.9396 26.917C28.9608 26.9185 28.9815 26.9241 29.0005 26.9336C29.0195 26.9431 29.0365 26.9563 29.0504 26.9724C29.0643 26.9884 29.075 27.0071 29.0817 27.0273C29.0884 27.0474 29.0911 27.0687 29.0896 27.0899C29.0881 27.1111 29.0824 27.1318 29.0729 27.1509C29.0634 27.1699 29.0502 27.1868 29.0342 27.2008C29.0181 27.2147 28.9995 27.2253 28.9793 27.2321C28.2236 27.5061 27.4278 27.6531 26.6241 27.6673Z" fill="#3B3B3B"/>
<path d="M29.5424 26.3807C29.5008 26.3785 29.4618 26.3601 29.4336 26.3295C29.0195 25.9192 28.5391 25.5817 28.0128 25.3311C26.9511 25.0183 25.8112 25.1095 24.8128 25.5871L24.1344 26.0351C24.1171 26.048 24.0973 26.0571 24.0763 26.0619C24.0553 26.0666 24.0335 26.0669 24.0124 26.0627C23.9912 26.0584 23.9712 26.0498 23.9537 26.0374C23.9361 26.0249 23.9213 26.0089 23.9104 25.9903C23.8985 25.9733 23.8903 25.954 23.8862 25.9336C23.882 25.9133 23.882 25.8923 23.8862 25.872C23.8904 25.8516 23.8987 25.8323 23.9105 25.8153C23.9224 25.7982 23.9376 25.7838 23.9552 25.7727L24.6464 25.3119C25.729 24.7802 26.9726 24.6773 28.128 25.0239C28.7057 25.2873 29.2305 25.6539 29.6768 26.1055C29.6921 26.1199 29.7043 26.1373 29.7126 26.1565C29.7209 26.1758 29.7252 26.1966 29.7252 26.2175C29.7252 26.2385 29.7209 26.2593 29.7126 26.2786C29.7043 26.2978 29.6921 26.3152 29.6768 26.3295C29.6599 26.348 29.639 26.3622 29.6156 26.3711C29.5923 26.38 29.5672 26.3833 29.5424 26.3807Z" fill="#3B3B3B"/>
<path d="M26.7264 27.5201C27.2565 27.5201 27.6864 27.0903 27.6864 26.5601C27.6864 26.0299 27.2565 25.6001 26.7264 25.6001C26.1962 25.6001 25.7664 26.0299 25.7664 26.5601C25.7664 27.0903 26.1962 27.5201 26.7264 27.5201Z" fill="#3B3B3B"/>
<path d="M38.2784 27.5201C38.8086 27.5201 39.2384 27.0903 39.2384 26.5601C39.2384 26.0299 38.8086 25.6001 38.2784 25.6001C37.7482 25.6001 37.3184 26.0299 37.3184 26.5601C37.3184 27.0903 37.7482 27.5201 38.2784 27.5201Z" fill="#3B3B3B"/>
<path d="M38.3552 27.6672C37.5572 27.6605 36.7658 27.5221 36.0128 27.2576C35.9739 27.2419 35.9425 27.212 35.9247 27.1741C35.9069 27.1361 35.9041 27.0928 35.9168 27.0528C35.9314 27.0128 35.9607 26.9799 35.9988 26.9608C36.0369 26.9418 36.0809 26.9381 36.1216 26.9504C36.8472 27.2405 37.6243 27.3798 38.4055 27.36C39.1866 27.3402 39.9556 27.1617 40.6656 26.8352C40.2533 26.3993 39.728 26.0864 39.1483 25.9316C38.5685 25.7768 37.9572 25.7861 37.3824 25.9584C37.0829 26.0428 36.8083 26.1988 36.5824 26.4128C36.309 26.7639 35.9434 27.032 35.5264 27.1872C35.5049 27.1963 35.4816 27.2006 35.4583 27.1997C35.435 27.1989 35.4121 27.1929 35.3913 27.1823C35.3705 27.1716 35.3523 27.1566 35.3379 27.1381C35.3236 27.1197 35.3135 27.0983 35.3082 27.0756C35.303 27.0528 35.3029 27.0292 35.3077 27.0063C35.3126 26.9835 35.3225 26.962 35.3366 26.9434C35.3506 26.9247 35.3686 26.9094 35.3893 26.8985C35.4099 26.8875 35.4327 26.8812 35.456 26.88C35.8065 26.7381 36.1133 26.5064 36.3456 26.208C36.6095 25.9518 36.9327 25.7649 37.2864 25.664C37.9302 25.4623 38.6182 25.4492 39.2692 25.6261C39.9202 25.803 40.5069 26.1626 40.96 26.6624V26.6944C40.984 26.7212 41.0021 26.7526 41.0131 26.7868C41.0242 26.821 41.0279 26.8571 41.024 26.8928C41.0182 26.9266 41.0056 26.9587 40.9869 26.9873C40.9682 27.016 40.9438 27.0404 40.9152 27.0592C40.1264 27.4734 39.246 27.6825 38.3552 27.6672Z" fill="#3B3B3B"/>
<path d="M35.4625 26.3808C35.419 26.3789 35.3778 26.3606 35.3473 26.3296C35.3179 26.2997 35.3015 26.2595 35.3015 26.2176C35.3015 26.1757 35.3179 26.1355 35.3473 26.1056C35.7894 25.652 36.3125 25.2851 36.8897 25.024C38.0423 24.6777 39.283 24.7782 40.3648 25.3056L41.0625 25.7728C41.0843 25.7818 41.1038 25.7955 41.1197 25.8129C41.1356 25.8304 41.1474 25.8511 41.1543 25.8736C41.1613 25.8962 41.1631 25.92 41.1598 25.9433C41.1565 25.9667 41.148 25.989 41.135 26.0087C41.1221 26.0284 41.1049 26.045 41.0848 26.0573C41.0646 26.0696 41.042 26.0772 41.0186 26.0798C40.9951 26.0823 40.9714 26.0796 40.9491 26.0719C40.9268 26.0642 40.9065 26.0517 40.8896 26.0352L40.2048 25.6C39.2056 25.1244 38.0657 25.0355 37.0049 25.3504C36.479 25.5986 36.0004 25.9365 35.5905 26.3488C35.5537 26.376 35.5077 26.3875 35.4625 26.3808Z" fill="#3B3B3B"/>
<path d="M45.0495 31.04C45.0242 31.0458 44.9979 31.0458 44.9727 31.04C44.9535 31.0307 44.9365 31.0174 44.9227 31.0011C44.9089 30.9848 44.8987 30.9658 44.8927 30.9453C44.8867 30.9249 44.885 30.9034 44.8877 30.8822C44.8905 30.861 44.8976 30.8407 44.9087 30.8224C45.1724 30.327 45.4012 29.8137 45.5935 29.2864C45.8984 28.5946 46.0741 27.8527 46.1119 27.0976C46.1269 26.8154 46.053 26.5356 45.9007 26.2976C45.8681 26.2769 45.8304 26.2658 45.7919 26.2656C45.7342 26.2849 45.6811 26.3159 45.6359 26.3566C45.5908 26.3974 45.5545 26.447 45.5295 26.5024C45.3839 26.7807 45.1861 27.0284 44.9471 27.232C44.9111 27.2545 44.8678 27.2625 44.8262 27.2541C44.7845 27.2458 44.7476 27.2219 44.7231 27.1872C44.7009 27.1522 44.6932 27.11 44.7015 27.0694C44.7099 27.0288 44.7337 26.993 44.7679 26.9696C44.964 26.7844 45.1283 26.5682 45.2543 26.3296C45.3024 26.2309 45.3723 26.1445 45.4588 26.0768C45.5453 26.0092 45.6461 25.9621 45.7535 25.9392C45.9005 25.9264 46.0469 25.9699 46.1631 26.0608C46.3689 26.3619 46.4741 26.7203 46.4639 27.0848C46.4257 27.877 46.2435 28.6556 45.9263 29.3824C45.7288 29.9252 45.4936 30.4534 45.2223 30.9632C45.2061 30.9935 45.1804 31.0174 45.1491 31.0314C45.1178 31.0453 45.0827 31.0483 45.0495 31.04Z" fill="#3B3B3B"/>
<path d="M20.0385 31.0399C20.0103 31.0406 19.9825 31.0339 19.9577 31.0204C19.933 31.007 19.9123 30.9872 19.8977 30.9631C19.6026 30.4561 19.3459 29.9277 19.1297 29.3823C18.7801 28.6615 18.5778 27.8782 18.5345 27.0783C18.5215 26.7145 18.6345 26.3573 18.8545 26.0671C18.9147 26.0132 18.986 25.9732 19.0635 25.95C19.1409 25.9267 19.2225 25.9209 19.3025 25.9327C19.4121 25.956 19.5155 26.0023 19.606 26.0685C19.6964 26.1347 19.7719 26.2193 19.8273 26.3167C19.968 26.5615 20.1523 26.7784 20.3713 26.9567C20.4059 26.9813 20.4298 27.0182 20.4382 27.0598C20.4465 27.1015 20.4386 27.1447 20.4161 27.1807C20.405 27.1983 20.3906 27.2135 20.3735 27.2254C20.3565 27.2372 20.3372 27.2455 20.3168 27.2497C20.2965 27.2539 20.2755 27.2539 20.2552 27.2497C20.2348 27.2456 20.2155 27.2373 20.1985 27.2255C19.9382 27.0304 19.7204 26.7844 19.5585 26.5023C19.5272 26.4425 19.4837 26.3899 19.4308 26.348C19.3779 26.306 19.3167 26.2758 19.2513 26.2591C19.1861 26.253 19.1208 26.2688 19.0657 26.3039C18.9105 26.5337 18.8341 26.8078 18.8481 27.0847C18.8922 27.8426 19.0858 28.5843 19.4177 29.2671C19.6314 29.7979 19.8816 30.3133 20.1665 30.8095C20.188 30.8453 20.1947 30.8881 20.1852 30.9287C20.1756 30.9694 20.1505 31.0047 20.1153 31.0271C20.0907 31.0364 20.0646 31.0408 20.0385 31.0399Z" fill="#3B3B3B"/>
<path d="M44.3712 30.208C44.3527 30.2154 44.3321 30.2154 44.3136 30.208C44.3064 30.2008 44.3008 30.1923 44.2969 30.183C44.293 30.1737 44.291 30.1637 44.291 30.1536C44.291 30.1434 44.293 30.1334 44.2969 30.1241C44.3008 30.1148 44.3064 30.1063 44.3136 30.0992C44.6985 29.7412 44.9435 29.258 45.0048 28.736C44.997 28.5864 44.957 28.4403 44.8874 28.3078C44.8178 28.1752 44.7203 28.0593 44.6016 27.968C44.5867 27.9525 44.5784 27.9318 44.5784 27.9104C44.5784 27.8889 44.5867 27.8682 44.6016 27.8528C44.6177 27.8392 44.6381 27.8318 44.6592 27.8318C44.6803 27.8318 44.7007 27.8392 44.7168 27.8528C44.853 27.9592 44.9647 28.0938 45.0442 28.2473C45.1237 28.4008 45.1692 28.5697 45.1776 28.7424C45.1193 29.3094 44.8552 29.8354 44.4352 30.2208C44.413 30.2247 44.3902 30.2201 44.3712 30.208Z" fill="#3B3B3B"/>
<path d="M20.691 29.9008H20.6462C20.4306 29.7841 20.2454 29.6186 20.1053 29.4174C19.9653 29.2162 19.8744 28.985 19.8398 28.7424C19.8438 28.5259 19.8932 28.3127 19.9847 28.1164C20.0762 27.9202 20.2078 27.7454 20.371 27.6032C20.3782 27.596 20.3867 27.5903 20.396 27.5864C20.4053 27.5826 20.4153 27.5806 20.4254 27.5806C20.4356 27.5806 20.4456 27.5826 20.4549 27.5864C20.4642 27.5903 20.4727 27.596 20.4798 27.6032C20.4947 27.6186 20.503 27.6393 20.503 27.6608C20.503 27.6822 20.4947 27.7029 20.4798 27.7184C20.3373 27.8467 20.2219 28.0023 20.1405 28.176C20.0592 28.3496 20.0135 28.5379 20.0062 28.7296C20.0423 28.9444 20.1274 29.148 20.2551 29.3245C20.3828 29.501 20.5495 29.6457 20.7422 29.7472C20.7494 29.7543 20.7551 29.7628 20.759 29.7721C20.7628 29.7814 20.7648 29.7914 20.7648 29.8016C20.7648 29.8117 20.7628 29.8217 20.759 29.831C20.7551 29.8403 20.7494 29.8488 20.7422 29.856C20.7382 29.8671 20.7314 29.8771 20.7224 29.885C20.7135 29.8928 20.7027 29.8982 20.691 29.9008Z" fill="#3B3B3B"/>
<path d="M30.1825 22.8799C30.1711 22.8419 30.1514 22.8069 30.1249 22.7775C29.9777 22.6111 29.5297 22.5727 29.3185 22.5279C28.9569 22.4532 28.5916 22.3977 28.2241 22.3615C27.4945 22.2783 26.7585 22.2527 26.0289 22.2335C25.3482 22.1846 24.6646 22.2738 24.0193 22.4959C23.5218 22.6681 23.0797 22.971 22.7393 23.3727C22.4162 23.8356 22.2667 24.3976 22.3169 24.9599C22.5142 24.4794 22.8391 24.0621 23.2565 23.753C23.6739 23.4439 24.1678 23.2549 24.6849 23.2063H24.7297C25.3761 23.2246 26.0192 23.306 26.6497 23.4495C27.2897 23.5519 27.8721 23.7247 28.4801 23.8271C29.0063 23.9169 29.5416 23.9405 30.0737 23.8975C30.1035 23.8978 30.133 23.8917 30.1602 23.8794C30.1874 23.8672 30.2116 23.8492 30.2311 23.8266C30.2506 23.8041 30.265 23.7776 30.2732 23.7489C30.2813 23.7202 30.2832 23.6901 30.2785 23.6607C30.2736 23.3978 30.2415 23.1361 30.1825 22.8799Z" fill="#3B3B3B"/>
<path d="M34.9634 22.8799C34.9798 22.8442 34.9991 22.81 35.021 22.7775C35.1682 22.6111 35.6162 22.5727 35.8274 22.5279C36.1911 22.4532 36.5586 22.3977 36.9282 22.3615C37.6578 22.2783 38.3874 22.2527 39.1234 22.2335C39.802 22.1846 40.4835 22.2738 41.1266 22.4959C41.6245 22.6673 42.0668 22.9703 42.4066 23.3727C42.7431 23.8398 42.9019 24.4117 42.8546 24.9855C42.6585 24.5042 42.3339 24.0861 41.9163 23.7769C41.4987 23.4676 41.0041 23.2791 40.4866 23.2319H40.4418C39.7953 23.2494 39.1522 23.3309 38.5218 23.4751C37.8818 23.5775 37.293 23.7503 36.685 23.8527C36.1588 23.9425 35.6234 23.9662 35.0914 23.9231C35.0619 23.9224 35.0329 23.9156 35.0062 23.903C34.9795 23.8904 34.9558 23.8724 34.9365 23.8501C34.9172 23.8278 34.9028 23.8017 34.8942 23.7735C34.8856 23.7452 34.883 23.7155 34.8866 23.6863C34.8864 23.4156 34.9122 23.1456 34.9634 22.8799Z" fill="#3B3B3B"/>
<path d="M28.1087 37.8752C28.0767 37.8748 28.0456 37.8648 28.0194 37.8466C27.9932 37.8283 27.973 37.8026 27.9615 37.7728C27.9533 37.7535 27.9491 37.7328 27.9492 37.7119C27.9493 37.6909 27.9537 37.6703 27.9621 37.6511C27.9705 37.6319 27.9827 37.6146 27.998 37.6003C28.0133 37.5861 28.0314 37.5751 28.0511 37.568L30.8927 36.48C31.0244 36.4288 31.1653 36.4058 31.3064 36.4124C31.4475 36.419 31.5856 36.4551 31.7119 36.5184L32.1983 36.7552C32.2977 36.8048 32.4072 36.8306 32.5183 36.8306C32.6294 36.8306 32.7389 36.8048 32.8383 36.7552L33.2799 36.48C33.4034 36.4191 33.5379 36.3838 33.6753 36.3761C33.8128 36.3684 33.9504 36.3885 34.0799 36.4352L37.1199 37.504C37.1588 37.5198 37.1902 37.5496 37.208 37.5876C37.2258 37.6256 37.2286 37.6689 37.2159 37.7088C37.2015 37.7487 37.1718 37.7812 37.1334 37.7992C37.095 37.8172 37.051 37.8192 37.0111 37.8048L33.9903 36.736C33.9021 36.7046 33.8085 36.6912 33.715 36.6967C33.6216 36.7022 33.5302 36.7264 33.4463 36.768L32.9663 37.0112C32.8249 37.0807 32.6694 37.1168 32.5119 37.1168C32.3543 37.1168 32.1989 37.0807 32.0575 37.0112L31.5711 36.7744C31.4834 36.7315 31.3871 36.7091 31.2895 36.7091C31.1919 36.7091 31.0956 36.7315 31.0079 36.7744L28.1599 37.8624L28.1087 37.8752Z" fill="#3B3B3B"/>
<path d="M33.8111 39.5198H31.0207C30.0102 39.5156 29.0421 39.1132 28.3263 38.3998L28.1215 38.2078C28.106 38.1929 28.0937 38.175 28.0853 38.1552C28.0768 38.1354 28.0725 38.1141 28.0725 38.0926C28.0725 38.0711 28.0768 38.0498 28.0853 38.0301C28.0937 38.0103 28.106 37.9924 28.1215 37.9774C28.1358 37.9621 28.1532 37.9499 28.1725 37.9416C28.1917 37.9333 28.2125 37.929 28.2335 37.929C28.2545 37.929 28.2752 37.9333 28.2945 37.9416C28.3138 37.9499 28.3311 37.9621 28.3455 37.9774L28.5439 38.1694C29.2075 38.8135 30.0959 39.1739 31.0207 39.1742H33.8111C34.313 39.1797 34.8103 39.0787 35.2703 38.8779C35.7303 38.6771 36.1426 38.3811 36.4799 38.0094C36.5098 37.9801 36.55 37.9637 36.5919 37.9637C36.6338 37.9637 36.674 37.9801 36.7039 38.0094C36.7192 38.0238 36.7314 38.0412 36.7397 38.0604C36.7481 38.0797 36.7524 38.1004 36.7524 38.1214C36.7524 38.1424 36.7481 38.1632 36.7397 38.1825C36.7314 38.2017 36.7192 38.2191 36.7039 38.2334C36.3408 38.6412 35.895 38.9668 35.3962 39.1886C34.8974 39.4105 34.357 39.5234 33.8111 39.5198Z" fill="#3B3B3B"/>
<path d="M26.3103 43.584C26.3103 43.584 26.3103 48.4352 24.9215 49.6128C23.5327 50.7904 19.9231 51.0016 19.9231 51.0016C19.9231 51.0016 32.6015 59.2448 43.6607 50.7328C43.6607 50.7328 40.5887 50.6752 38.8351 48.4544C38.2492 46.9019 38.0302 45.2351 38.1951 43.584C38.1951 43.584 32.7935 48.2816 26.3103 43.584Z" fill="#E1A277"/>
<path d="M41.3887 19.7185C41.1263 18.5601 41.4847 19.4049 40.9855 18.2977C40.3455 16.9473 38.8351 17.6577 36.5823 17.7857C33.3311 17.9457 33.4591 15.3857 32.2623 15.5713C31.1679 15.7377 32.8575 20.8513 31.7951 20.6145C30.2975 20.2817 26.7839 17.2417 25.5103 14.8545C25.1263 14.1377 24.2303 15.5521 23.9231 16.1665C23.4239 17.2737 23.6287 18.5409 23.3215 19.6929C23.3215 19.6929 21.8879 23.3537 20.3071 23.2705C20.2239 22.7841 18.4767 7.91054 30.6751 7.91054C31.8975 7.91054 34.8415 6.81614 35.9807 6.82254C36.4991 6.82254 35.0719 8.25614 35.5391 8.35214C42.6111 9.79214 44.7999 14.3105 44.9471 17.2801C45.0879 20.4801 45.0751 24.8641 44.5055 24.8641C44.5055 24.8705 41.9519 22.2017 41.3887 19.7185Z" fill="#3B3B3B"/>
<path d="M57.4016 57.1582C57.3505 57.1575 57.3002 57.145 57.2547 57.1217C57.2092 57.0984 57.1697 57.0649 57.1392 57.0238L53.6384 52.0894L44.9344 50.6814C44.8498 50.6673 44.7742 50.6204 44.7239 50.5509C44.6736 50.4815 44.6527 50.395 44.6656 50.3102C44.6726 50.2685 44.6877 50.2286 44.7102 50.1928C44.7327 50.1571 44.762 50.1261 44.7965 50.1017C44.831 50.0773 44.87 50.06 44.9113 50.0507C44.9525 50.0415 44.9952 50.0405 45.0368 50.0478L53.9968 51.5006L57.6512 56.6206C57.6995 56.6889 57.7191 56.7732 57.7059 56.8558C57.6928 56.9383 57.6479 57.0124 57.5808 57.0622C57.5344 57.1145 57.4708 57.1485 57.4016 57.1582Z" fill="#3B3B3B"/>
<path d="M6.59839 57.1585C6.51724 57.1568 6.43966 57.1248 6.38079 57.0689C6.3508 57.0392 6.32699 57.0038 6.31074 56.9648C6.2945 56.9258 6.28613 56.884 6.28613 56.8417C6.28613 56.7995 6.2945 56.7577 6.31074 56.7187C6.32699 56.6797 6.3508 56.6443 6.38079 56.6145L11.104 51.5969L18.208 50.3617C18.2492 50.3544 18.2915 50.3555 18.3324 50.3648C18.3732 50.3741 18.4118 50.3915 18.4458 50.416C18.4798 50.4404 18.5085 50.4714 18.5303 50.5072C18.5522 50.5429 18.5666 50.5827 18.5728 50.6241C18.5877 50.7073 18.5692 50.7929 18.5213 50.8625C18.4733 50.932 18.3998 50.9798 18.3168 50.9953L11.4112 52.1921L6.83519 57.0561C6.80452 57.0881 6.76778 57.1136 6.72711 57.1312C6.68645 57.1488 6.64269 57.1581 6.59839 57.1585Z" fill="#3B3B3B"/>
</svg>
